<?xml version="1.0" encoding="UTF-8" standalone="no"?>
<svg width="341px" height="85px" viewBox="0 0 341 85" version="1.1" xmlns="http://www.w3.org/2000/svg" xmlns:xlink="http://www.w3.org/1999/xlink" xmlns:sketch="http://www.bohemiancoding.com/sketch/ns">
    <title>Untitled 3</title>
    <description>Created with Sketch (http://www.bohemiancoding.com/sketch)</description>
    <defs></defs>
    <g id="Page-1" stroke="none" stroke-width="1" fill="none" fill-rule="evenodd" sketch:type="MSPage">
        <g id="lullalogo_horizontal_white" sketch:type="MSLayerGroup" fill="#FFFFFF">
            <g id="Page-1" sketch:type="MSShapeGroup">
                <g id="lullalogo_horizontal_white">
                    <g id="Page-1">
                        <g id="lullalogo_horizontal_white">
                            <path d="M60.086,47.341 L5.455,47.341 C2.504,47.341 0.113,49.733 0.113,52.684 L0.113,83.758 L12.027,83.758 L12.027,63.147 L14.135,63.147 L14.135,83.758 L51.11,83.758 L51.11,63.147 L53.218,63.147 L53.218,83.758 L65.428,83.758 L65.428,52.684 C65.428,49.732 63.036,47.341 60.086,47.341 L60.086,47.341 L60.086,47.341 Z" id="Shape"></path>
                            <g id="Group" transform="translate(9.000000, 15.000000)">
                                <path d="M42.119,27.008 C42.119,28.743 40.71,30.151 38.976,30.151 L8.349,30.151 C6.613,30.151 5.207,28.744 5.207,27.008 L5.207,3.23 C5.207,1.494 6.613,0.084 8.349,0.084 L38.976,0.084 C40.71,0.084 42.119,1.493 42.119,3.23 L42.119,27.008 L42.119,27.008 Z M17.675,17.857 L18.45,17.857 C18.451,19.052 19.025,20.142 19.986,20.95 C20.945,21.755 22.288,22.264 23.778,22.264 C25.268,22.264 26.61,21.755 27.57,20.95 C28.531,20.141 29.106,19.053 29.106,17.857 L29.107,17.857 L29.881,17.857 C29.869,20.775 27.099,23.034 23.778,23.04 C20.456,23.034 17.686,20.775 17.675,17.857 L17.675,17.857 Z M25.729,11.175 L26.505,11.175 C26.508,12.681 27.726,13.898 29.232,13.901 C30.737,13.898 31.955,12.681 31.958,11.175 L32.734,11.175 C32.734,13.11 31.165,14.676 29.231,14.678 C27.297,14.676 25.729,13.109 25.729,11.175 L25.729,11.175 Z M14.104,11.175 L14.88,11.175 C14.883,12.681 16.101,13.898 17.606,13.901 C19.111,13.898 20.329,12.681 20.332,11.175 L21.108,11.175 C21.108,13.11 19.54,14.676 17.606,14.678 C15.672,14.676 14.105,13.109 14.104,11.175 L14.104,11.175 Z" id="Shape"></path>
                                <path d="M47.626,21.071 C47.626,22.057 46.827,22.857 45.841,22.857 L45.841,22.857 C44.854,22.857 44.055,22.057 44.055,21.071 L44.055,9.164 C44.055,8.178 44.854,7.379 45.841,7.379 L45.841,7.379 C46.827,7.379 47.626,8.178 47.626,9.164 L47.626,21.071 L47.626,21.071 Z" id="Shape"></path>
                                <path d="M3.272,21.071 C3.272,22.057 2.471,22.857 1.485,22.857 L1.485,22.857 C0.499,22.857 -0.301,22.057 -0.301,21.071 L-0.301,9.164 C-0.301,8.178 0.499,7.379 1.485,7.379 L1.485,7.379 C2.471,7.379 3.272,8.178 3.272,9.164 L3.272,21.071 L3.272,21.071 Z" id="Shape"></path>
                            </g>
                            <g id="Group" transform="translate(29.000000, 0.000000)">
                                <circle id="Oval" cx="3.274" cy="3.274" r="3.274"></circle>
                                <path d="M4.667,4.735 L2.122,4.735 L1,13.544 L5.79,13.544 L4.667,4.735 L4.667,4.735 Z" id="Shape"></path>
                            </g>
                            <g id="Group" transform="translate(77.000000, 33.000000)">
                                <path d="M253.875,6.039 L253.096,6.039 C252.65,6.039 252.489,5.729 252.489,5.481 C252.489,5.233 252.65,4.923 253.096,4.923 L256.155,4.923 C256.601,4.923 256.75,5.233 256.75,5.481 C256.75,5.729 256.602,6.039 256.155,6.039 L255.363,6.039 L255.363,9.334 C255.363,9.99 254.842,10.139 254.619,10.139 C254.396,10.139 253.876,9.991 253.876,9.334 L253.876,6.039 L253.875,6.039 L253.875,6.039 Z M262.223,7.03 L262.198,7.03 L261.295,9.482 C261.134,9.916 260.898,10.138 260.551,10.138 C260.204,10.138 259.97,9.915 259.808,9.482 L258.905,7.03 L258.88,7.03 L258.88,9.334 C258.88,9.99 258.36,10.139 258.137,10.139 C257.914,10.139 257.395,9.991 257.395,9.334 L257.395,5.964 C257.395,5.073 258.001,4.85 258.422,4.85 C259.066,4.85 259.487,5.148 259.747,5.804 L260.552,7.872 L261.358,5.804 C261.618,5.148 262.04,4.85 262.683,4.85 C263.104,4.85 263.711,5.074 263.711,5.964 L263.711,9.334 C263.711,9.99 263.19,10.139 262.968,10.139 C262.744,10.139 262.224,9.991 262.224,9.334 L262.224,7.03 L262.223,7.03 L262.223,7.03 Z" id="Shape"></path>
                                <g id="Shape">
                                    <path d="M-0.097,5.597 C-0.097,2.194 2.125,-0.097 5.597,-0.097 C9.069,-0.097 11.291,2.194 11.291,5.597 L11.291,41.217 L30.316,41.217 C33.58,41.217 36.218,42.883 36.218,46.008 C36.218,49.133 33.579,50.799 30.316,50.799 L6.569,50.799 C2.541,50.799 -0.097,49.202 -0.097,44.133 L-0.097,5.597 L-0.097,5.597 Z"></path>
                                    <path d="M73.71,46.633 C73.71,49.689 72.321,51.702 69.127,51.702 C65.933,51.702 64.544,49.688 64.544,46.633 L64.544,45.314 L64.405,45.314 C61.558,49.064 57.878,51.703 52.115,51.703 C46.005,51.703 39.339,48.647 39.339,38.372 L39.339,18.65 C39.339,15.941 40.45,13.581 44.408,13.581 C48.366,13.581 49.477,15.941 49.477,18.65 L49.477,36.356 C49.477,40.453 51.49,43.369 55.865,43.369 C59.407,43.369 63.573,40.453 63.573,35.385 L63.573,18.65 C63.573,15.941 64.684,13.581 68.642,13.581 C72.6,13.581 73.711,15.941 73.711,18.65 L73.711,46.633 L73.71,46.633 L73.71,46.633 Z"></path>
                                    <path d="M80.58,4.971 C80.58,1.638 82.594,-0.097 85.649,-0.097 C88.704,-0.097 90.717,1.638 90.717,4.971 L90.717,46.633 C90.717,49.966 88.703,51.702 85.649,51.702 C82.594,51.702 80.58,49.966 80.58,46.633 L80.58,4.971 L80.58,4.971 Z"></path>
                                    <path d="M98.146,4.971 C98.146,1.638 100.161,-0.097 103.215,-0.097 C106.27,-0.097 108.283,1.638 108.283,4.971 L108.283,46.633 C108.283,49.966 106.269,51.702 103.215,51.702 C100.16,51.702 98.146,49.966 98.146,46.633 L98.146,4.971 L98.146,4.971 Z"></path>
                                    <path d="M148.833,41.008 C148.833,45.244 149.875,46.217 149.875,47.814 C149.875,50.106 147.722,51.703 145.29,51.703 C140.917,51.703 139.458,48.925 139.32,45.801 C135.361,50.175 130.778,51.703 125.432,51.703 C119.669,51.703 113.975,47.745 113.975,41.356 C113.975,32.955 120.363,30.593 128.139,29.692 L134.32,28.997 C136.751,28.719 138.694,28.164 138.694,25.248 C138.694,22.332 135.71,21.081 132.306,21.081 C124.806,21.081 124.599,26.636 120.572,26.636 C118.002,26.636 116.267,24.831 116.267,22.747 C116.267,18.721 121.96,13.582 132.375,13.582 C142.097,13.582 148.832,16.706 148.832,23.998 L148.832,41.008 L148.833,41.008 L148.833,41.008 Z M138.694,33.717 C137.583,34.759 135.5,35.107 134.32,35.315 L130.64,35.871 C126.404,36.497 124.113,37.815 124.113,40.871 C124.113,43.162 126.265,45.037 129.737,45.037 C135.292,45.037 138.694,41.427 138.694,37.677 L138.694,33.717 L138.694,33.717 Z"></path>
                                    <path d="M155.495,4.971 C155.495,1.638 157.508,-0.097 160.562,-0.097 C163.618,-0.097 165.63,1.638 165.63,4.971 L165.63,18.72 L165.77,18.72 C167.784,15.456 171.254,13.581 175.769,13.581 C186.461,13.581 191.392,22.678 191.392,32.398 C191.392,45.521 183.962,51.702 175.49,51.702 C170.562,51.702 166.466,49.619 164.799,45.313 L164.659,45.313 L164.659,46.911 C164.659,50.035 163.062,51.702 160.077,51.702 C156.952,51.702 155.495,50.035 155.495,46.911 L155.495,4.971 L155.495,4.971 Z M173.2,21.497 C167.019,21.427 165.075,27.538 165.075,32.746 C165.075,38.509 167.298,43.786 173.2,43.786 C178.615,43.646 181.254,38.717 181.254,32.746 C181.254,28.024 179.657,21.497 173.2,21.497 L173.2,21.497 L173.2,21.497 Z"></path>
                                    <path d="M213.401,13.581 C225.62,13.581 232.147,21.914 232.147,32.607 C232.147,42.745 227.217,51.702 213.401,51.702 C199.582,51.702 194.651,42.745 194.651,32.607 C194.651,21.914 201.18,13.581 213.401,13.581 L213.401,13.581 L213.401,13.581 Z M213.401,44.202 C219.44,44.202 222.009,38.786 222.009,32.607 C222.009,26.01 219.301,21.08 213.401,21.08 C207.498,21.08 204.79,26.011 204.79,32.607 C204.79,38.786 207.358,44.202 213.401,44.202 L213.401,44.202 L213.401,44.202 Z"></path>
                                    <path d="M238.88,21.149 L237.144,21.149 C234.297,21.149 233.117,20.039 233.117,17.816 C233.117,15.594 234.298,14.483 237.144,14.483 L238.88,14.483 L238.88,8.304 C238.88,4.97 240.894,3.235 243.948,3.235 C247.003,3.235 249.017,4.97 249.017,8.304 L249.017,14.483 L252.072,14.483 C255.058,14.483 256.655,15.385 256.655,17.816 C256.655,20.247 255.058,21.149 252.072,21.149 L249.017,21.149 L249.017,41.425 C249.017,42.951 249.85,43.785 251.657,43.785 L253.114,43.785 C255.337,43.785 256.655,45.035 256.655,47.187 C256.655,50.104 254.156,51.701 249.295,51.701 C241.935,51.701 238.88,48.645 238.88,42.674 L238.88,21.149 L238.88,21.149 Z"></path>
                                </g>
                            </g>
                        </g>
                    </g>
                </g>
            </g>
        </g>
    </g>
</svg>